<svg xmlns="http://www.w3.org/2000/svg" xmlns:xlink="http://www.w3.org/1999/xlink" width="104.73" height="81.143" viewBox="0 0 104.73 81.143">
  <defs>
    <clipPath id="clip-path">
      <rect id="Rectangle_673" data-name="Rectangle 673" width="104.73" height="81.143" fill="none"/>
    </clipPath>
  </defs>
  <g id="Icon_4" data-name="Icon 4" transform="translate(0 0)">
    <g id="Group_187" data-name="Group 187" transform="translate(0 0)" clip-path="url(#clip-path)">
      <path id="Path_2168" data-name="Path 2168" d="M75.17,21.368l21.785-.016a1.822,1.822,0,0,1,1.824,1.821L98.8,47.116" transform="translate(-9.563 -2.716)" fill="none" stroke="#2d2e2b" stroke-linecap="round" stroke-linejoin="round" stroke-width="1.645"/>
      <path id="Path_2169" data-name="Path 2169" d="M17.7,47.176l-.017-23.942A1.822,1.822,0,0,1,19.5,21.41l21.785-.017" transform="translate(-2.249 -2.721)" fill="none" stroke="#2d2e2b" stroke-linecap="round" stroke-linejoin="round" stroke-width="1.645"/>
      <line id="Line_53" data-name="Line 53" x1="0.006" y1="8.092" transform="translate(52.047 36.335)" fill="#fff"/>
      <line id="Line_54" data-name="Line 54" x1="0.006" y1="8.092" transform="translate(52.047 36.335)" fill="none" stroke="#2d2e2b" stroke-linecap="round" stroke-linejoin="round" stroke-width="1.645"/>
      <path id="Path_2170" data-name="Path 2170" d="M11.618,76.552A11.243,11.243,0,0,0,8.03,77.3,11.524,11.524,0,0,0,.823,88.117a2.047,2.047,0,0,0,2.049,2.046l24.46-.017A2.048,2.048,0,0,0,29.378,88.1a11.522,11.522,0,0,0-7.223-10.807,11.225,11.225,0,0,0-3.589-.744Z" transform="translate(-0.105 -9.738)" fill="#6c4494"/>
      <path id="Path_2171" data-name="Path 2171" d="M11.618,76.552A11.243,11.243,0,0,0,8.03,77.3,11.524,11.524,0,0,0,.823,88.117a2.047,2.047,0,0,0,2.049,2.046l24.46-.017A2.048,2.048,0,0,0,29.378,88.1a11.522,11.522,0,0,0-7.223-10.807,11.225,11.225,0,0,0-3.589-.744Z" transform="translate(-0.105 -9.738)" fill="none" stroke="#2d2e2b" stroke-linecap="round" stroke-linejoin="round" stroke-width="1.645"/>
      <path id="Path_2172" data-name="Path 2172" d="M97.252,76.489a11.243,11.243,0,0,0-3.588.748,11.524,11.524,0,0,0-7.207,10.817A2.047,2.047,0,0,0,88.506,90.1l24.46-.017a2.048,2.048,0,0,0,2.046-2.048,11.523,11.523,0,0,0-7.223-10.807,11.226,11.226,0,0,0-3.589-.744Z" transform="translate(-10.999 -9.73)" fill="#6c4494"/>
      <path id="Path_2173" data-name="Path 2173" d="M97.252,76.489a11.243,11.243,0,0,0-3.588.748,11.524,11.524,0,0,0-7.207,10.817A2.047,2.047,0,0,0,88.506,90.1l24.46-.017a2.048,2.048,0,0,0,2.046-2.048,11.523,11.523,0,0,0-7.223-10.807,11.226,11.226,0,0,0-3.589-.744Z" transform="translate(-10.999 -9.73)" fill="none" stroke="#2d2e2b" stroke-linecap="round" stroke-linejoin="round" stroke-width="1.645"/>
      <path id="Path_2174" data-name="Path 2174" d="M54.435,76.52a11.243,11.243,0,0,0-3.588.748A11.524,11.524,0,0,0,43.64,88.085a2.047,2.047,0,0,0,2.049,2.046l24.46-.017a2.048,2.048,0,0,0,2.046-2.048,11.524,11.524,0,0,0-7.223-10.807,11.226,11.226,0,0,0-3.589-.744Z" transform="translate(-5.552 -9.734)" fill="#6c4494"/>
      <path id="Path_2175" data-name="Path 2175" d="M54.435,76.52a11.243,11.243,0,0,0-3.588.748A11.524,11.524,0,0,0,43.64,88.085a2.047,2.047,0,0,0,2.049,2.046l24.46-.017a2.048,2.048,0,0,0,2.046-2.048,11.524,11.524,0,0,0-7.223-10.807,11.226,11.226,0,0,0-3.589-.744Z" transform="translate(-5.552 -9.734)" fill="none" stroke="#2d2e2b" stroke-linecap="round" stroke-linejoin="round" stroke-width="1.645"/>
      <path id="Path_2176" data-name="Path 2176" d="M24.587,59.623a8.695,8.695,0,1,0-8.689,8.7,8.7,8.7,0,0,0,8.689-8.7" transform="translate(-0.916 -6.48)" fill="#fff"/>
      <path id="Path_2177" data-name="Path 2177" d="M24.587,59.623a8.695,8.695,0,1,0-8.689,8.7A8.7,8.7,0,0,0,24.587,59.623Z" transform="translate(-0.916 -6.48)" fill="none" stroke="#2d2e2b" stroke-linecap="round" stroke-linejoin="round" stroke-width="1.645"/>
      <path id="Path_2178" data-name="Path 2178" d="M67.4,59.591a8.695,8.695,0,1,0-8.689,8.7,8.7,8.7,0,0,0,8.689-8.7" transform="translate(-6.363 -6.476)" fill="#fff"/>
      <path id="Path_2179" data-name="Path 2179" d="M67.4,59.591a8.695,8.695,0,1,0-8.689,8.7A8.7,8.7,0,0,0,67.4,59.591Z" transform="translate(-6.363 -6.476)" fill="none" stroke="#2d2e2b" stroke-linecap="round" stroke-linejoin="round" stroke-width="1.645"/>
      <path id="Path_2180" data-name="Path 2180" d="M110.221,59.56a8.695,8.695,0,1,0-8.689,8.7,8.7,8.7,0,0,0,8.689-8.7" transform="translate(-11.81 -6.472)" fill="#fff"/>
      <path id="Path_2181" data-name="Path 2181" d="M110.221,59.56a8.695,8.695,0,1,0-8.689,8.7A8.7,8.7,0,0,0,110.221,59.56Z" transform="translate(-11.81 -6.472)" fill="none" stroke="#2d2e2b" stroke-linecap="round" stroke-linejoin="round" stroke-width="1.645"/>
      <path id="Path_2182" data-name="Path 2182" d="M71.056,18.355a13.618,13.618,0,0,0-.241-2.491l3.417-2.773A17.2,17.2,0,0,0,70.42,6.5L66.31,8.079A13.514,13.514,0,0,0,62,5.6L61.3,1.245a17.211,17.211,0,0,0-7.614.006L53,5.6a13.507,13.507,0,0,0-4.31,2.49L44.58,6.52a17.209,17.209,0,0,0-3.8,6.6l3.42,2.768a13.092,13.092,0,0,0,0,4.982l-3.417,2.773A17.247,17.247,0,0,0,44.6,30.23l4.11-1.579a13.524,13.524,0,0,0,4.313,2.484l.694,4.35a17.211,17.211,0,0,0,7.614-.006l.688-4.351a13.507,13.507,0,0,0,4.31-2.49l4.112,1.573a17.226,17.226,0,0,0,3.8-6.6l-3.42-2.768a13.617,13.617,0,0,0,.237-2.491" transform="translate(-5.188 -0.104)" fill="#6db757"/>
      <path id="Path_2183" data-name="Path 2183" d="M71.056,18.355a13.618,13.618,0,0,0-.241-2.491l3.417-2.773A17.2,17.2,0,0,0,70.42,6.5L66.31,8.079A13.514,13.514,0,0,0,62,5.6L61.3,1.245a17.211,17.211,0,0,0-7.614.006L53,5.6a13.507,13.507,0,0,0-4.31,2.49L44.58,6.52a17.209,17.209,0,0,0-3.8,6.6l3.42,2.768a13.092,13.092,0,0,0,0,4.982l-3.417,2.773A17.247,17.247,0,0,0,44.6,30.23l4.11-1.579a13.524,13.524,0,0,0,4.313,2.484l.694,4.35a17.211,17.211,0,0,0,7.614-.006l.688-4.351a13.507,13.507,0,0,0,4.31-2.49l4.112,1.573a17.226,17.226,0,0,0,3.8-6.6l-3.42-2.768A13.617,13.617,0,0,0,71.056,18.355Z" transform="translate(-5.188 -0.104)" fill="none" stroke="#2d2e2b" stroke-linecap="round" stroke-linejoin="round" stroke-width="1.645"/>
      <path id="Path_2184" data-name="Path 2184" d="M58.892,27.133a7.271,7.271,0,1,1,7.266-7.276,7.271,7.271,0,0,1-7.266,7.276" transform="translate(-6.567 -1.602)" fill="#fff"/>
      <path id="Path_2185" data-name="Path 2185" d="M58.892,27.133a7.271,7.271,0,1,1,7.266-7.276A7.271,7.271,0,0,1,58.892,27.133Z" transform="translate(-6.567 -1.602)" fill="none" stroke="#2d2e2b" stroke-linecap="round" stroke-linejoin="round" stroke-width="1.645"/>
    </g>
  </g>
</svg>
