<svg xmlns="http://www.w3.org/2000/svg" xmlns:xlink="http://www.w3.org/1999/xlink" width="94.422" height="72" viewBox="0 0 94.422 72">
  <defs>
    <clipPath id="clip-path">
      <rect id="Rectangle_664" data-name="Rectangle 664" width="94.422" height="72" fill="none"/>
    </clipPath>
  </defs>
  <g id="Icon_1" data-name="Icon 1" transform="translate(0 0)">
    <rect id="Rectangle_661" data-name="Rectangle 661" width="25.752" height="10.73" transform="translate(34.602 60.567)" fill="#fff"/>
    <g id="Group_183" data-name="Group 183" transform="translate(0 0)">
      <g id="Group_182" data-name="Group 182" clip-path="url(#clip-path)">
        <path id="Path_2134" data-name="Path 2134" d="M40.628,81.842V71.114H66.38V81.847" transform="translate(-6.026 -10.547)" fill="none" stroke="#2d2e2b" stroke-linecap="round" stroke-linejoin="round" stroke-width="1.645"/>
        <rect id="Rectangle_662" data-name="Rectangle 662" width="93.021" height="59.759" rx="4.906" transform="translate(0.701 0.701)" fill="#6c4494"/>
        <rect id="Rectangle_663" data-name="Rectangle 663" width="93.021" height="59.759" rx="4.906" transform="translate(0.701 0.701)" fill="none" stroke="#2d2e2b" stroke-linecap="round" stroke-linejoin="round" stroke-width="1.645"/>
        <line id="Line_34" data-name="Line 34" x2="50.471" transform="translate(21.976 71.298)" fill="none" stroke="#2d2e2b" stroke-linecap="round" stroke-linejoin="round" stroke-width="1.645"/>
        <path id="Path_2135" data-name="Path 2135" d="M77.8,49.46H90.93V46.405h14.33" transform="translate(-11.538 -6.882)" fill="none" stroke="#2d2e2b" stroke-linecap="round" stroke-linejoin="round" stroke-width="1.645"/>
        <path id="Path_2136" data-name="Path 2136" d="M79.612,49.608a2.2,2.2,0,1,1-2.2-2.2,2.2,2.2,0,0,1,2.2,2.2" transform="translate(-11.155 -7.031)" fill="#fff"/>
        <path id="Path_2137" data-name="Path 2137" d="M79.612,49.608a2.2,2.2,0,1,1-2.2-2.2A2.2,2.2,0,0,1,79.612,49.608Z" transform="translate(-11.155 -7.031)" fill="none" stroke="#2d2e2b" stroke-linecap="round" stroke-linejoin="round" stroke-width="1.645"/>
        <line id="Line_35" data-name="Line 35" x1="18.239" transform="translate(75.482 48.901)" fill="none" stroke="#2d2e2b" stroke-linecap="round" stroke-linejoin="round" stroke-width="1.645"/>
        <path id="Path_2138" data-name="Path 2138" d="M89.35,57.119a2,2,0,1,1-2-2,2,2,0,0,1,2,2" transform="translate(-12.658 -8.174)" fill="#fff"/>
        <circle id="Ellipse_110" data-name="Ellipse 110" cx="2" cy="2" r="2" transform="translate(72.692 46.944)" fill="none" stroke="#2d2e2b" stroke-linecap="round" stroke-linejoin="round" stroke-width="1.645"/>
        <path id="Path_2139" data-name="Path 2139" d="M28.522,49.508H15.387V46.454H.823" transform="translate(-0.122 -6.889)" fill="none" stroke="#2d2e2b" stroke-linecap="round" stroke-linejoin="round" stroke-width="1.645"/>
        <path id="Path_2140" data-name="Path 2140" d="M30.763,49.657a2.2,2.2,0,1,0,2.2-2.2,2.2,2.2,0,0,0-2.2,2.2" transform="translate(-4.563 -7.038)" fill="#fff"/>
        <path id="Path_2141" data-name="Path 2141" d="M30.763,49.657a2.2,2.2,0,1,0,2.2-2.2A2.2,2.2,0,0,0,30.763,49.657Z" transform="translate(-4.563 -7.038)" fill="none" stroke="#2d2e2b" stroke-linecap="round" stroke-linejoin="round" stroke-width="1.645"/>
        <line id="Line_36" data-name="Line 36" x2="18.474" transform="translate(0.7 48.942)" fill="none" stroke="#2d2e2b" stroke-linecap="round" stroke-linejoin="round" stroke-width="1.645"/>
        <path id="Path_2142" data-name="Path 2142" d="M21.095,57.167a2,2,0,1,0,2-2,2,2,0,0,0-2,2" transform="translate(-3.129 -8.182)" fill="#fff"/>
        <circle id="Ellipse_111" data-name="Ellipse 111" cx="2" cy="2" r="2" transform="translate(17.966 46.986)" fill="none" stroke="#2d2e2b" stroke-linecap="round" stroke-linejoin="round" stroke-width="1.645"/>
        <path id="Path_2143" data-name="Path 2143" d="M28.57,23.769H14.911V20.575H.823" transform="translate(-0.122 -3.051)" fill="none" stroke="#2d2e2b" stroke-linecap="round" stroke-linejoin="round" stroke-width="1.645"/>
        <path id="Path_2144" data-name="Path 2144" d="M29.635,23.778a2.2,2.2,0,1,0,2.2-2.2,2.2,2.2,0,0,0-2.2,2.2" transform="translate(-4.395 -3.2)" fill="#fff"/>
        <path id="Path_2145" data-name="Path 2145" d="M29.635,23.778a2.2,2.2,0,1,0,2.2-2.2A2.2,2.2,0,0,0,29.635,23.778Z" transform="translate(-4.395 -3.2)" fill="none" stroke="#2d2e2b" stroke-linecap="round" stroke-linejoin="round" stroke-width="1.645"/>
        <line id="Line_37" data-name="Line 37" x2="16.272" transform="translate(1.378 12.175)" fill="none" stroke="#2d2e2b" stroke-linecap="round" stroke-linejoin="round" stroke-width="1.645"/>
        <path id="Path_2146" data-name="Path 2146" d="M18.377,13.946a2,2,0,1,0,2-2,2,2,0,0,0-2,2" transform="translate(-2.726 -1.771)" fill="#fff"/>
        <circle id="Ellipse_112" data-name="Ellipse 112" cx="2" cy="2" r="2" transform="translate(15.651 10.175)" fill="none" stroke="#2d2e2b" stroke-linecap="round" stroke-linejoin="round" stroke-width="1.645"/>
        <path id="Path_2147" data-name="Path 2147" d="M78.822,23.769H92.481V20.575h12.931" transform="translate(-11.69 -3.051)" fill="none" stroke="#2d2e2b" stroke-linecap="round" stroke-linejoin="round" stroke-width="1.645"/>
        <path id="Path_2148" data-name="Path 2148" d="M81.823,23.778a2.2,2.2,0,1,1-2.2-2.2,2.2,2.2,0,0,1,2.2,2.2" transform="translate(-11.483 -3.2)" fill="#fff"/>
        <path id="Path_2149" data-name="Path 2149" d="M81.823,23.778a2.2,2.2,0,1,1-2.2-2.2A2.2,2.2,0,0,1,81.823,23.778Z" transform="translate(-11.483 -3.2)" fill="none" stroke="#2d2e2b" stroke-linecap="round" stroke-linejoin="round" stroke-width="1.645"/>
        <line id="Line_38" data-name="Line 38" x1="15.793" transform="translate(77.929 12.175)" fill="none" stroke="#2d2e2b" stroke-linecap="round" stroke-linejoin="round" stroke-width="1.645"/>
        <path id="Path_2150" data-name="Path 2150" d="M93.151,13.946a2,2,0,1,1-2-2,2,2,0,0,1,2,2" transform="translate(-13.222 -1.771)" fill="#fff"/>
        <circle id="Ellipse_113" data-name="Ellipse 113" cx="2" cy="2" r="2" transform="translate(75.929 10.175)" fill="none" stroke="#2d2e2b" stroke-linecap="round" stroke-linejoin="round" stroke-width="1.645"/>
        <path id="Path_2151" data-name="Path 2151" d="M48.8,45.158l1.1-1.76a.539.539,0,0,1,.6-.231,10.927,10.927,0,0,0,1.834.31.538.538,0,0,1,.486.413l.464,2.027a1.006,1.006,0,0,0,1.206.756l3.781-.866a1.006,1.006,0,0,0,.757-1.206l-.464-2.026a.539.539,0,0,1,.258-.584,10.936,10.936,0,0,0,1.516-1.077.539.539,0,0,1,.636-.051l1.76,1.1a1.007,1.007,0,0,0,1.388-.318l2.061-3.286a1.006,1.006,0,0,0-.318-1.387l-1.76-1.1a.539.539,0,0,1-.231-.6,10.927,10.927,0,0,0,.31-1.834.539.539,0,0,1,.413-.486l2.027-.464a1.007,1.007,0,0,0,.756-1.206l-.866-3.781a1.007,1.007,0,0,0-1.206-.757l-2.026.464a.54.54,0,0,1-.584-.258,10.836,10.836,0,0,0-1.077-1.516.539.539,0,0,1-.051-.636l1.1-1.76a1.007,1.007,0,0,0-.318-1.388l-3.286-2.061a1.006,1.006,0,0,0-1.387.318l-1.1,1.76a.539.539,0,0,1-.6.231,10.841,10.841,0,0,0-1.834-.31.539.539,0,0,1-.486-.414L53.2,19.151A1.007,1.007,0,0,0,52,18.395l-3.781.865a1.008,1.008,0,0,0-.757,1.207l.464,2.026a.538.538,0,0,1-.258.583,10.912,10.912,0,0,0-1.516,1.077.539.539,0,0,1-.636.051l-1.76-1.1a1.008,1.008,0,0,0-1.388.319L40.3,26.7a1.006,1.006,0,0,0,.318,1.387l1.76,1.1a.539.539,0,0,1,.231.6,10.842,10.842,0,0,0-.31,1.834.54.54,0,0,1-.414.486l-2.026.464a1.006,1.006,0,0,0-.756,1.206l.866,3.781a1.006,1.006,0,0,0,1.206.757l2.026-.464a.537.537,0,0,1,.583.258,11.014,11.014,0,0,0,1.077,1.516.539.539,0,0,1,.051.636l-1.1,1.76a1.007,1.007,0,0,0,.318,1.388l3.286,2.061a1.006,1.006,0,0,0,1.387-.318m1.117-7.688a5.783,5.783,0,0,1-1.836-8.156,6.238,6.238,0,0,1,8.4-1.955,5.783,5.783,0,0,1,1.835,8.156,6.239,6.239,0,0,1-8.4,1.955" transform="translate(-5.796 -2.724)" fill="#6db757"/>
        <path id="Path_2152" data-name="Path 2152" d="M48.8,45.158l1.1-1.76a.539.539,0,0,1,.6-.231,10.927,10.927,0,0,0,1.834.31.538.538,0,0,1,.486.413l.464,2.027a1.006,1.006,0,0,0,1.206.756l3.781-.866a1.006,1.006,0,0,0,.757-1.206l-.464-2.026a.539.539,0,0,1,.258-.584,10.936,10.936,0,0,0,1.516-1.077.539.539,0,0,1,.636-.051l1.76,1.1a1.007,1.007,0,0,0,1.388-.318l2.061-3.286a1.006,1.006,0,0,0-.318-1.387l-1.76-1.1a.539.539,0,0,1-.231-.6,10.927,10.927,0,0,0,.31-1.834.539.539,0,0,1,.413-.486l2.027-.464a1.007,1.007,0,0,0,.756-1.206l-.866-3.781a1.007,1.007,0,0,0-1.206-.757l-2.026.464a.54.54,0,0,1-.584-.258,10.836,10.836,0,0,0-1.077-1.516.539.539,0,0,1-.051-.636l1.1-1.76a1.007,1.007,0,0,0-.318-1.388l-3.286-2.061a1.006,1.006,0,0,0-1.387.318l-1.1,1.76a.539.539,0,0,1-.6.231,10.841,10.841,0,0,0-1.834-.31.539.539,0,0,1-.486-.414L53.2,19.151A1.007,1.007,0,0,0,52,18.395l-3.781.865a1.008,1.008,0,0,0-.757,1.207l.464,2.026a.538.538,0,0,1-.258.583,10.912,10.912,0,0,0-1.516,1.077.539.539,0,0,1-.636.051l-1.76-1.1a1.008,1.008,0,0,0-1.388.319L40.3,26.7a1.006,1.006,0,0,0,.318,1.387l1.76,1.1a.539.539,0,0,1,.231.6,10.842,10.842,0,0,0-.31,1.834.54.54,0,0,1-.414.486l-2.026.464a1.006,1.006,0,0,0-.756,1.206l.866,3.781a1.006,1.006,0,0,0,1.206.757l2.026-.464a.537.537,0,0,1,.583.258,11.014,11.014,0,0,0,1.077,1.516.539.539,0,0,1,.051.636l-1.1,1.76a1.007,1.007,0,0,0,.318,1.388l3.286,2.061A1.006,1.006,0,0,0,48.8,45.158Zm1.117-7.688a5.783,5.783,0,0,1-1.836-8.156,6.238,6.238,0,0,1,8.4-1.955,5.783,5.783,0,0,1,1.835,8.156A6.239,6.239,0,0,1,49.919,37.47Z" transform="translate(-5.796 -2.724)" fill="none" stroke="#2d2e2b" stroke-linecap="round" stroke-linejoin="round" stroke-width="1.645"/>
      </g>
    </g>
  </g>
</svg>
