<svg xmlns="http://www.w3.org/2000/svg" xmlns:xlink="http://www.w3.org/1999/xlink" width="72.169" height="72" viewBox="0 0 72.169 72">
  <defs>
    <clipPath id="clip-path">
      <rect id="Rectangle_674" data-name="Rectangle 674" width="72.169" height="72" fill="none"/>
    </clipPath>
  </defs>
  <g id="Icon_3" data-name="Icon 3" transform="translate(0 0)">
    <g id="Group_189" data-name="Group 189" transform="translate(0 0)" clip-path="url(#clip-path)">
      <path id="Path_2186" data-name="Path 2186" d="M31.519,55.055l.175,1.067a7.753,7.753,0,0,0,4.048,5.6v7.948H32.659a4.6,4.6,0,0,0-4.587,4.287H24.706a2.751,2.751,0,0,0,0,5.5H53.975a2.751,2.751,0,0,0,0-5.5H50.609a4.6,4.6,0,0,0-4.586-4.287H42.938V61.742a7.755,7.755,0,0,0,4.071-5.588l.2-1.1" transform="translate(-3.256 -8.165)" fill="#6c4494"/>
      <path id="Path_2187" data-name="Path 2187" d="M31.519,55.055l.175,1.067a7.753,7.753,0,0,0,4.048,5.6v7.948H32.659a4.6,4.6,0,0,0-4.587,4.287H24.706a2.751,2.751,0,0,0,0,5.5H53.975a2.751,2.751,0,0,0,0-5.5H50.609a4.6,4.6,0,0,0-4.586-4.287H42.938V61.742a7.755,7.755,0,0,0,4.071-5.588l.2-1.1" transform="translate(-3.256 -8.165)" fill="none" stroke="#2d2e2b" stroke-linecap="round" stroke-linejoin="round" stroke-width="1.645"/>
      <path id="Path_2188" data-name="Path 2188" d="M69.516,11.364H58.394l.628-6.454A3.725,3.725,0,0,0,55.313.823H17.173a3.727,3.727,0,0,0-3.707,4.106l.659,6.435H2.9A2.073,2.073,0,0,0,.822,13.437v5.234a15.761,15.761,0,0,0,15.6,15.76h.512A20.353,20.353,0,0,0,36.308,48.55h0A20.355,20.355,0,0,0,55.68,34.431h.307a15.761,15.761,0,0,0,15.6-15.76V13.437a2.073,2.073,0,0,0-2.074-2.073M5.972,18.813V16.463h8.674l1.341,13.09h-.22a10.786,10.786,0,0,1-9.8-10.74m60.467,0a10.786,10.786,0,0,1-9.8,10.74h-.019L57.9,16.463h8.542Z" transform="translate(-0.122 -0.122)" fill="#6db757"/>
      <path id="Path_2189" data-name="Path 2189" d="M69.516,11.364H58.394l.628-6.454A3.725,3.725,0,0,0,55.313.823H17.173a3.727,3.727,0,0,0-3.707,4.106l.659,6.435H2.9A2.073,2.073,0,0,0,.822,13.437v5.234a15.761,15.761,0,0,0,15.6,15.76h.512A20.353,20.353,0,0,0,36.308,48.55h0A20.355,20.355,0,0,0,55.68,34.431h.307a15.761,15.761,0,0,0,15.6-15.76V13.437A2.073,2.073,0,0,0,69.516,11.364ZM5.972,18.813V16.463h8.674l1.341,13.09h-.22A10.786,10.786,0,0,1,5.972,18.813Zm60.467,0a10.786,10.786,0,0,1-9.8,10.74h-.019L57.9,16.463h8.542Z" transform="translate(-0.122 -0.122)" fill="none" stroke="#2d2e2b" stroke-linecap="round" stroke-linejoin="round" stroke-width="1.645"/>
      <path id="Path_2190" data-name="Path 2190" d="M43,13.052l2.359,4.781,5.276.767a3.312,3.312,0,0,1,1.835,5.65L48.65,27.971l.9,5.255a3.312,3.312,0,0,1-4.806,3.492l-4.719-2.481-4.718,2.481A3.312,3.312,0,0,1,30.5,33.225l.9-5.255L27.584,24.25A3.313,3.313,0,0,1,29.42,18.6l5.275-.767,2.36-4.781a3.312,3.312,0,0,1,5.941,0" transform="translate(-3.942 -1.662)" fill="#fff"/>
      <path id="Path_2191" data-name="Path 2191" d="M43,13.052l2.359,4.781,5.276.767a3.312,3.312,0,0,1,1.835,5.65L48.65,27.971l.9,5.255a3.312,3.312,0,0,1-4.806,3.492l-4.719-2.481-4.718,2.481A3.312,3.312,0,0,1,30.5,33.225l.9-5.255L27.584,24.25A3.313,3.313,0,0,1,29.42,18.6l5.275-.767,2.36-4.781A3.312,3.312,0,0,1,43,13.052Z" transform="translate(-3.942 -1.662)" fill="none" stroke="#2d2e2b" stroke-linecap="round" stroke-linejoin="round" stroke-width="1.645"/>
    </g>
  </g>
</svg>
