<svg xmlns="http://www.w3.org/2000/svg" xmlns:xlink="http://www.w3.org/1999/xlink" width="73.637" height="84.114" viewBox="0 0 73.637 84.114">
  <defs>
    <clipPath id="clip-path">
      <rect id="Rectangle_672" data-name="Rectangle 672" width="73.637" height="84.114" fill="none"/>
    </clipPath>
  </defs>
  <g id="Icon_2" data-name="Icon 2" transform="translate(0 0)">
    <g id="Group_186" data-name="Group 186" transform="translate(0 0)" clip-path="url(#clip-path)">
      <path id="Path_2158" data-name="Path 2158" d="M51.891,37.265H17.959a6.633,6.633,0,0,0,0,13.264l39.047-.015a16.224,16.224,0,0,1,0,32.445H23.933l6.411-9.59h26.1a6.633,6.633,0,0,0,0-13.264L26.6,60.115,8.843,57.6A16.3,16.3,0,0,1,1.378,43.9h0A16.169,16.169,0,0,1,17.4,27.675H48.072" transform="translate(-0.131 -2.636)" fill="#fff"/>
      <path id="Path_2159" data-name="Path 2159" d="M51.891,37.265H17.959a6.633,6.633,0,0,0,0,13.264l39.047-.015a16.224,16.224,0,0,1,0,32.445H23.933l6.411-9.59h26.1a6.633,6.633,0,0,0,0-13.264L26.6,60.115,8.843,57.6A16.3,16.3,0,0,1,1.378,43.9h0A16.169,16.169,0,0,1,17.4,27.675H48.072" transform="translate(-0.131 -2.636)" fill="none" stroke="#2d2e2b" stroke-linecap="round" stroke-linejoin="round" stroke-width="1.645"/>
      <line id="Line_44" data-name="Line 44" y1="4.63" transform="translate(49.853 0.744)" fill="none" stroke="#2d2e2b" stroke-linecap="round" stroke-linejoin="round" stroke-width="1.645"/>
      <line id="Line_45" data-name="Line 45" x2="4.63" transform="translate(31.336 19.261)" fill="none" stroke="#2d2e2b" stroke-linecap="round" stroke-linejoin="round" stroke-width="1.645"/>
      <line id="Line_46" data-name="Line 46" y1="3.273" x2="3.273" transform="translate(36.76 29.081)" fill="none" stroke="#2d2e2b" stroke-linecap="round" stroke-linejoin="round" stroke-width="1.645"/>
      <line id="Line_47" data-name="Line 47" y1="3.273" x2="3.273" transform="translate(59.673 6.168)" fill="none" stroke="#2d2e2b" stroke-linecap="round" stroke-linejoin="round" stroke-width="1.645"/>
      <line id="Line_48" data-name="Line 48" x2="3.273" y2="3.273" transform="translate(36.76 6.168)" fill="none" stroke="#2d2e2b" stroke-linecap="round" stroke-linejoin="round" stroke-width="1.645"/>
      <line id="Line_49" data-name="Line 49" x1="4.63" transform="translate(63.741 19.261)" fill="none" stroke="#2d2e2b" stroke-linecap="round" stroke-linejoin="round" stroke-width="1.645"/>
      <line id="Line_50" data-name="Line 50" x1="3.273" y1="3.273" transform="translate(59.673 29.081)" fill="none" stroke="#2d2e2b" stroke-linecap="round" stroke-linejoin="round" stroke-width="1.645"/>
      <rect id="Rectangle_670" data-name="Rectangle 670" width="6.637" height="5.098" transform="translate(46.795 35.562)" fill="#fff"/>
      <rect id="Rectangle_671" data-name="Rectangle 671" width="6.637" height="5.098" transform="translate(46.795 35.562)" fill="none" stroke="#2d2e2b" stroke-linecap="round" stroke-linejoin="round" stroke-width="1.645"/>
      <path id="Path_2160" data-name="Path 2160" d="M49.838,36.688h8.329a1.68,1.68,0,0,0,1.676-1.676c-.26-4.589,1.063-6.842,2.756-9.536a10.452,10.452,0,1,0-17.192,0c1.693,2.694,3.015,4.947,2.756,9.536a1.68,1.68,0,0,0,1.676,1.676" transform="translate(-4.149 -0.865)" fill="#6db757"/>
      <path id="Path_2161" data-name="Path 2161" d="M49.838,36.688h8.329a1.68,1.68,0,0,0,1.676-1.676c-.26-4.589,1.063-6.842,2.756-9.536a10.452,10.452,0,1,0-17.192,0c1.693,2.694,3.015,4.947,2.756,9.536A1.68,1.68,0,0,0,49.838,36.688Z" transform="translate(-4.149 -0.865)" fill="none" stroke="#2d2e2b" stroke-linecap="round" stroke-linejoin="round" stroke-width="1.645"/>
      <path id="Path_2162" data-name="Path 2162" d="M10.339,88.046a14.808,14.808,0,1,1,19.124-8.533,14.807,14.807,0,0,1-19.124,8.533" transform="translate(-0.078 -5.659)" fill="#6c4494"/>
      <path id="Path_2163" data-name="Path 2163" d="M10.339,88.046a14.808,14.808,0,1,1,19.124-8.533A14.807,14.807,0,0,1,10.339,88.046Z" transform="translate(-0.078 -5.659)" fill="none" stroke="#2d2e2b" stroke-linecap="round" stroke-linejoin="round" stroke-width="1.645"/>
      <path id="Path_2164" data-name="Path 2164" d="M18.807,68.13a7.4,7.4,0,1,0,4.266,9.559,7.4,7.4,0,0,0-4.266-9.559" transform="translate(-0.834 -6.443)" fill="#fff"/>
      <path id="Path_2165" data-name="Path 2165" d="M18.807,68.13a7.4,7.4,0,1,0,4.266,9.559A7.4,7.4,0,0,0,18.807,68.13Z" transform="translate(-0.834 -6.443)" fill="none" stroke="#2d2e2b" stroke-linecap="round" stroke-linejoin="round" stroke-width="1.645"/>
      <line id="Line_51" data-name="Line 51" y1="6.995" x2="8.194" transform="translate(15.325 61.606)" fill="#fff"/>
      <line id="Line_52" data-name="Line 52" y1="6.995" x2="8.194" transform="translate(15.325 61.606)" fill="none" stroke="#2d2e2b" stroke-linecap="round" stroke-linejoin="round" stroke-width="1.645"/>
      <path id="Path_2166" data-name="Path 2166" d="M25.609,63.478l.351,3.643,3.544.915,6.586-5.627-3.145-1.256-.75-3.3Z" transform="translate(-2.44 -5.511)" fill="#6db757"/>
      <path id="Path_2167" data-name="Path 2167" d="M25.609,63.478l.351,3.643,3.544.915,6.586-5.627-3.145-1.256-.75-3.3Z" transform="translate(-2.44 -5.511)" fill="none" stroke="#2d2e2b" stroke-linecap="round" stroke-linejoin="round" stroke-width="1.645"/>
    </g>
  </g>
</svg>
