<svg xmlns="http://www.w3.org/2000/svg" viewBox="0 0 150 48" role="img" aria-label="AI Prompt Builder">
  <defs>
    <linearGradient id="apb-g" x1="0" y1="0" x2="1" y2="1">
      <stop offset="0" stop-color="#6DB757"/>
      <stop offset="1" stop-color="#3E8E41"/>
    </linearGradient>
  </defs>
  <!-- Mark: chat/prompt bubble with sparkle and typing cursor -->
  <g>
    <path d="M4 12c0-3.9 3.1-7 7-7h22c3.9 0 7 3.1 7 7v16c0 3.9-3.1 7-7 7H18l-8 8v-8h-1c-2.8 0-5-3.1-5-7V12z" fill="url(#apb-g)"/>
    <path d="M11 15h14M11 21h18" stroke="#ffffff" stroke-opacity="0.85" stroke-width="2.4" stroke-linecap="round"/>
    <rect x="11" y="26" width="9" height="3" rx="1.5" fill="#ffffff" fill-opacity="0.5"/>
    <rect x="22.5" y="25.2" width="2.2" height="4.6" rx="1" fill="#ffffff"/>
    <path d="M33 10.5l1.5 3.5 3.5 1.5-3.5 1.5-1.5 3.5-1.5-3.5-3.5-1.5 3.5-1.5 1.5-3.5z" fill="#ffffff"/>
  </g>
  <!-- Wordmark, stacked on two lines to keep the logo compact -->
  <text x="48" y="21" font-family="Segoe UI, Arial, sans-serif" font-size="18" font-weight="700" fill="#1E2B23">AI Prompt</text>
  <text x="48" y="38" font-family="Segoe UI, Arial, sans-serif" font-size="14" font-weight="700" fill="#3E8E41">Builder</text>
</svg>
