<svg xmlns="http://www.w3.org/2000/svg" viewBox="0 0 250 48" role="img" aria-label="Datasolver">
  <defs>
    <linearGradient id="dsl-g" x1="0" y1="0" x2="1" y2="1">
      <stop offset="0" stop-color="#6DB757"/>
      <stop offset="1" stop-color="#3E8E41"/>
    </linearGradient>
  </defs>
  <!-- Mark: database cylinder with magnifier / check -->
  <g>
    <ellipse cx="19" cy="10" rx="15" ry="6" fill="url(#dsl-g)"/>
    <path d="M4 10v22c0 3.3 6.7 6 15 6s15-2.7 15-6V10" fill="url(#dsl-g)"/>
    <ellipse cx="19" cy="10" rx="15" ry="6" fill="#ffffff" fill-opacity="0.25"/>
    <path d="M4 17.5c0 3.3 6.7 6 15 6s15-2.7 15-6M4 25c0 3.3 6.7 6 15 6s15-2.7 15-6" fill="none" stroke="#ffffff" stroke-opacity="0.55" stroke-width="1.8"/>
    <circle cx="31" cy="32" r="9" fill="#ffffff" stroke="#3E8E41" stroke-width="2"/>
    <path d="M27 32l2.8 2.8 5-5.2" fill="none" stroke="#3E8E41" stroke-width="2.4" stroke-linecap="round" stroke-linejoin="round"/>
  </g>
  <!-- Wordmark -->
  <text x="46" y="32" font-family="Segoe UI, Arial, sans-serif" font-size="24" font-weight="700" fill="#1E2B23">Data<tspan fill="#3E8E41">solver</tspan></text>
</svg>
