<svg id="Group_4789" data-name="Group 4789" xmlns="http://www.w3.org/2000/svg" xmlns:xlink="http://www.w3.org/1999/xlink" width="134.703" height="50" viewBox="0 0 134.703 50">
  <defs>
    <clipPath id="clip-path">
      <rect id="Rectangle_1972" data-name="Rectangle 1972" width="134.703" height="50" fill="none"/>
    </clipPath>
  </defs>
  <g id="Group_4788" data-name="Group 4788" clip-path="url(#clip-path)">
    <path id="Path_13" data-name="Path 13" d="M297.791,94.862c0,3.521-3.109,5.889-7.745,5.893-4.68,0-7.706-2.3-7.708-5.881l.015-14.862h-4.995L277.343,95.2c0,6.02,5.111,10.061,12.707,10.055,7.625-.006,12.743-4.054,12.739-10.074l-.011-15.166-5,0Z" transform="translate(-220.716 -63.676)" fill="#0064af"/>
    <path id="Path_14" data-name="Path 14" d="M160.3,79.912H155.55a8.3,8.3,0,0,0,1.015,4.38,8.659,8.659,0,0,0-2.054-2.02,13.157,13.157,0,0,0-8.186-2.385c-7.245.005-11.742,3.866-11.738,10.075l0,5.293c0,6.125,4.508,9.925,11.752,9.919a15.43,15.43,0,0,0,5.782-1.051,11.228,11.228,0,0,0,4.726-3.867,17.743,17.743,0,0,0-1.532,6.137l.005,7.181,5,0ZM147,100.858c-4.526,0-7.567-2.341-7.57-5.833l0-4.931c0-5.12,4.822-5.889,7.7-5.891,3.992,0,8.022,1.575,8.025,5.106l0,6.385c0,3.807-4.39,5.161-8.154,5.164" transform="translate(-107.108 -63.576)" fill="#0064af"/>
    <path id="Path_15" data-name="Path 15" d="M456.278,90.4V80.02h-4.207V90.4l-10.285,0V89.271a9.1,9.1,0,0,0-1.4-5.005c-1.831-2.7-5.371-4.259-10.123-4.256A28.232,28.232,0,0,0,418.794,82.8l-.43.224,1.622,3.777.473-.188a29.465,29.465,0,0,1,9.433-2.1c.047,0,.095,0,.142,0,3.215,0,5.4.932,6.3,2.623a4.976,4.976,0,0,1,.454,2.143V90.4l-13.381.011a5.931,5.931,0,0,0-5.926,5.935V97.7c0,4.808,3.922,7.562,10.753,7.557.327,0,.642-.015.959-.029.2-.009.393-.017.585-.031a16.4,16.4,0,0,0,4.126-.8,9.188,9.188,0,0,0,4.372-3.472,8.283,8.283,0,0,0-1.079,3.96l-.01.43H441.8l0-2.676,0-2.443,0-4.526V94.61h10.282v10.726h4.207V94.61h10.665V90.4Zm-19.672,7.422c-.7,1.766-4,3.247-7.558,3.249-.084,0-.162,0-.244,0-6.318-.066-6.324-2.826-6.325-3.741a2.714,2.714,0,0,1,2.712-2.716l11.555-.009,0,2.569a1.857,1.857,0,0,1-.143.652" transform="translate(-332.24 -63.674)" fill="#0064af"/>
    <path id="Path_16" data-name="Path 16" d="M19.76,104.909l-.011.419,4.568,0L24.306,89.3a9.1,9.1,0,0,0-1.4-5.005c-1.831-2.7-5.371-4.259-10.123-4.256A28.232,28.232,0,0,0,1.315,82.828l-.43.224,1.622,3.777.473-.188a29.463,29.463,0,0,1,9.433-2.1c.047,0,.095,0,.142,0,3.215,0,5.4,1.136,6.3,2.827a4.1,4.1,0,0,1,.454,1.939v1.125l-13.382.011A5.931,5.931,0,0,0,0,96.372v1.35c0,4.808,3.922,7.562,10.753,7.557.327,0,.642-.015.959-.029.2-.009.393-.017.585-.031a15.954,15.954,0,0,0,4.538-.948,9.163,9.163,0,0,0,4-3.322,8.282,8.282,0,0,0-1.079,3.96m-.633-7.059c-.7,1.766-4,3.247-7.559,3.249-.084,0-.162,0-.244,0C5.007,101.03,5,98.27,5,97.355a2.714,2.714,0,0,1,2.712-2.716l11.555-.009,0,2.569a1.862,1.862,0,0,1-.143.652" transform="translate(0 -63.694)" fill="#0064af"/>
    <path id="Path_17" data-name="Path 17" d="M301,10.951s.072-.087.423-.438A3.489,3.489,0,0,0,302.6,8.6a3.723,3.723,0,0,0-3.98-4.054l-1.844.006a3.7,3.7,0,0,0-3.122-2.449,5.509,5.509,0,0,0-1.4,0,3.953,3.953,0,0,0-1.188.4l-.354.167a3.111,3.111,0,0,0,.771-1.7l0-.973h-2.625l0,.973a3.111,3.111,0,0,0,.771,1.7L289.27,2.5a3.95,3.95,0,0,0-1.188-.4,5.509,5.509,0,0,0-1.4,0,3.7,3.7,0,0,0-3.122,2.449l-1.844-.006a3.723,3.723,0,0,0-3.98,4.054,3.49,3.49,0,0,0,1.174,1.909c.351.351.423.438.423.438h-1.872v2.221h25.416V10.951Zm-18.993,0L280.863,9.6a1.622,1.622,0,0,1,.271-2.5,1.767,1.767,0,0,1,.981-.293h1.025a4.054,4.054,0,0,0,.225.776l1.357,3.372Zm5.554,0-1.575-3.915a1.968,1.968,0,0,1,1.824-2.7h1.034l.005,6.617Zm6.782-3.915-1.576,3.915H291.48l0-6.617h1.034a1.968,1.968,0,0,1,1.824,2.7M299.464,9.6l-1.143,1.356-2.716,0,1.357-3.372a4.065,4.065,0,0,0,.225-.776h1.025a1.768,1.768,0,0,1,.981.293,1.622,1.622,0,0,1,.271,2.5" transform="translate(-220.806)" fill="#b4a5aa"/>
  </g>
</svg>
