<svg xmlns="http://www.w3.org/2000/svg" id="Layer_2" data-name="Layer 2" viewBox="0 0 76 66"><defs><style>      .cls-1 {        fill: #ea6345;      }      .cls-2 {        fill: #fff;      }      .cls-3 {        fill: #5c514e;      }    </style></defs><g id="Layer_1-2" data-name="Layer 1"><g><path class="cls-2" d="m21.81,38.39h-10.81v13.7h10.81v-13.7Z"></path><path class="cls-2" d="m63.05,41.36h-9.87v10.75h9.87v-10.75Z"></path><path class="cls-2" d="m52.3,41.36h-8.69v10.75h8.69v-10.75Z"></path><path class="cls-1" d="m75.86,41.5c-.18-.99-.5-1.92-1-2.79-.89-1.58-2.17-2.8-3.8-3.68-.14-.07-.18-.15-.2-.3-.05-.59-.09-1.18-.19-1.77-.18-.99-.45-1.95-.85-2.88-1.25-2.88-3.27-5.12-6.07-6.72-1.36-.78-2.82-1.31-4.38-1.61-.81-.16-1.64-.27-2.47-.27-.85,0-1.7,0-2.54.15-.12.02-.18,0-.19-.14-.03-.49-.14-.97-.26-1.43-.36-1.35-.89-2.64-1.66-3.84-.12-.19-.18-.39-.18-.61,0-5.1,0-10.21,0-15.31,0-.23-.05-.31-.31-.31-3.23.02-6.47.03-9.7.04-4.77.01-9.54.01-14.32.02-.23,0-.35.11-.35.34v15.86c0,.23-.05.45-.17.65-.61,1.07-1.04,2.22-1.32,3.41-.19.79-.28,1.6-.32,2.41-.01.22-.11.27-.31.21-.36-.12-.75-.19-1.12-.21-1.11-.08-2.22-.06-3.31.22-1.27.34-2.43.89-3.43,1.71-1.92,1.58-2.99,3.56-3.14,5.99-.01.21-.08.29-.29.23-.6-.18-1.21-.27-1.83-.29-.96-.04-1.92-.07-2.88.12-.67.13-1.34.28-1.98.51-1.14.41-2.19.99-3.14,1.73-.75.59-1.42,1.25-2,2-.55.71-1,1.48-1.35,2.3-.25.59-.45,1.19-.58,1.82C.12,39.59,0,40.11,0,40.65c.1,0,.2.02.3.02h10.9s.03-.08.03-.12c.02-.24.15-.37.41-.37h8.2c.36,0,.56.16.6.49h2.01c.09,0,.18-.02.26.05.07-.04.15-.04.24-.04.57,0,1.13,0,1.7,0,.17,0,.24.03.24.21,0,2.2,0,4.4,0,6.61,0,.17-.05.23-.23.22-.56-.01-1.12-.01-1.67,0-.22,0-.26-.07-.25-.25,0-2.13,0-4.27,0-6.4,0-.09.03-.19-.02-.28,0,.63-.01,1.26-.01,1.89,0,1.7,0,3.4,0,5.09,0,.24-.07.29-.31.29-.65-.01-1.3,0-1.95-.01,0,.08-.02.16-.02.24,0,1.18,0,2.36,0,3.54,0,.22.06.28.29.28,1.58,0,3.17,0,4.75,0h9.48c1.58,0,3.17-.03,4.75,0,1.45.03,2.91-.11,4.36.07.03,0,.07,0,.11-.01-.05-.07-.05-.19-.05-.42,0-3.2,0-6.39,0-9.59,0-.26.08-.32.34-.31.62.02,1.24,0,1.87,0,.88.01,1.76-.05,2.63.11,1.33.25,2.42.96,2.64,2.47.26,1.85-.44,3.49-2.7,3.98-.71.15-1.44.14-2.16.13-.24,0-.32.05-.31.29.02,1,.01,2,0,2.99,0,.22-.01.31.22.31,1.21-.01,2.49.03,3.71.02,1.13,0,1.71.01,3.33,0,.09,0,.01-.14.01-.37,0-3.2,0-6.41,0-9.61,0-.24.06-.31.32-.31,1.05.01,2.11,0,3.16,0,.63,0,1.24.05,1.85.2,1.51.37,2.65,1.18,3.26,2.57.54,1.22.56,2.5.29,3.79-.33,1.6-1.28,2.74-2.88,3.35-.32.12-.78.23-1.14.34,1.12.06,2.23.09,3.41.09.6,0,1.98,0,2.98-.03,0-.02-.02-.05-.02-.08,0-3.3.01-6.6.02-9.89,0-.23.12-.35.37-.35,1.85,0,3.7,0,5.55,0,.27,0,.34.08.33.33-.02.41-.02.82,0,1.23.01.22-.08.26-.28.26-1.14,0-2.29,0-3.43,0-.2,0-.27.04-.27.24.02.73.01,1.47,0,2.2,0,.18.05.24.25.24,1.05,0,2.1,0,3.16,0,.22,0,.31.05.3.28-.02.42-.02.84,0,1.26,0,.21-.06.27-.28.27-1.04,0-2.09,0-3.13-.01-.23,0-.29.06-.29.28.01,1.15,0,2.29,0,3.44,0,.12.01.24.02.35h0c0-.13.12-.09.19-.1.57-.11,1.15-.18,1.71-.34,1.82-.53,3.37-1.48,4.61-2.87,1.21-1.37,1.94-2.96,2.18-4.73.12-.87.1-1.76-.06-2.64h0ZM27.78,25.05c0-8.12,0-16.25,0-24.37,0-.22.09-.25.29-.25,3.47,0,6.94-.01,10.41-.03,4.29-.01,8.59-.02,12.89-.04.28,0,.35.07.35.34,0,9.97,0,19.94,0,29.91,0,.23-.12.34-.35.34h-17.61c-.15,0-.29,0-.44,0-.11.15-.15-.01-.19-.05-.79-.84-1.58-1.67-2.36-2.51-.98-1.05-1.97-2.09-2.94-3.14-.04-.04-.28-.12-.02-.21h0Zm28.04,8.24c-.18.64-.64.86-1.3.91-1.72.14-3.44.05-5.16.07-.94.02-1.89.01-2.83.02.34.54.32.79-.11,1.21-.07.29-.32.39-.57.48-.17.06-.3.14-.41.28-.64.8-1.28,1.6-1.94,2.38-.58.69-1.38,1.11-2.21,1.46-.7.29-1.35.66-1.96,1.09-.2.14-.34.32-.46.51-.37.55-.9.91-1.56.96-1.92.15-3.6.95-5.3,1.69-.92.4-1.82.87-2.73,1.28-.63.28-1.3.45-1.98.63-.19.05-.25,0-.28-.19-.21-1.62-.43-3.24-.66-4.87-.02-.16.03-.22.18-.25.36-.07.71-.16,1.05-.29.09-.03.18-.06.21-.18.32-1.06,1.1-1.79,1.98-2.45,1.05-.78,2.24-1.31,3.46-1.81,1.04-.42,2.05-.9,2.93-1.58.19-.15.41-.25.65-.35-.09,0-.18-.02-.28-.02h-10.41c-.48,0-.95-.04-1.43-.09-.42-.04-.7-.24-.89-.61-.35-.68-.36-.67.41-.67h31.33c.41,0,.38,0,.27.37h0Z"></path><path class="cls-3" d="m0,40.65c.1,0,.2.02.3.02h10.9c0,.07.02.14.02.21v6.96c0,.07-.01.14-.02.21H2.6s-.09,0-.14-.01c-.31-.25-.51-.58-.71-.9-.49-.75-.91-1.52-1.19-2.37-.22-.67-.39-1.36-.49-2.06-.1-.69-.06-1.37-.06-2.06H0Z"></path><path class="cls-1" d="m17.8,59.9c.16.11.37.12.55.18.88.34,1.34.96,1.49,1.85.12.75.06,1.46-.32,2.13-.51.9-1.36,1.36-2.36,1.6-.67.16-1.35.19-2.04.19-1.24-.01-2.47,0-3.71,0-.22,0-.28-.06-.28-.27,0-3.61,0-7.21,0-10.82,0-.15.05-.2.2-.2,1.52,0,3.04-.02,4.56.03.89.03,1.78.18,2.56.65.7.43,1.07,1.06,1.11,1.85.02.47.02.94-.15,1.39-.27.69-.75,1.14-1.49,1.34-.04.01-.09,0-.12.07h0Zm-4.17,2.49c0,.42,0,.84,0,1.26,0,.16.05.22.22.21.51-.01,1.03.02,1.54-.01.41-.02.84-.06,1.21-.26.63-.34.75-.96.64-1.57-.13-.72-.69-.94-1.34-1.04-.68-.1-1.37-.04-2.05-.06-.17,0-.22.06-.22.21,0,.42,0,.84,0,1.26Zm0-4.61c0,.35,0,.7,0,1.05,0,.14.03.21.2.21.53,0,1.06.02,1.59-.02.41-.03.85-.06,1.18-.34.4-.33.48-.77.37-1.24-.12-.53-.54-.72-1.04-.82-.71-.15-1.42-.04-2.13-.08-.15,0-.17.05-.17.17,0,.36,0,.72,0,1.08h0Z"></path><path class="cls-1" d="m61.16,60.18c0-1.79,0-3.59,0-5.38,0-.17.03-.23.22-.23,1.35,0,2.69-.02,4.04.02.92.03,1.82.22,2.61.73.72.46,1.09,1.13,1.23,1.95.13.73.05,1.41-.28,2.06-.34.68-.91,1.15-1.61,1.48-.23.1-.22.17-.09.35,1.05,1.47,2.08,2.94,3.12,4.42.05.07.15.14.11.22-.05.1-.18.05-.28.05-.73,0-1.47,0-2.2,0-.17,0-.26-.05-.35-.19-.83-1.29-1.67-2.57-2.5-3.86-.12-.19-.26-.29-.5-.27-.25.02-.5.02-.74,0-.24-.02-.28.07-.28.28.01,1.23,0,2.47,0,3.7,0,.22-.12.33-.36.33h-1.79c-.24,0-.36-.11-.36-.34v-5.33Zm2.5-2.16c0,.43,0,.86,0,1.28,0,.19.04.26.26.26.46,0,.92,0,1.37-.06.69-.11,1.3-.31,1.47-1.15.14-.71-.09-1.47-1.03-1.69-.61-.15-1.23-.13-1.85-.14-.18,0-.21.05-.21.21,0,.43,0,.86,0,1.28h0Z"></path><path class="cls-1" d="m28.97,58.39c0-1.19,0-2.38,0-3.57,0-.19.05-.26.26-.26.68.01,1.36.01,2.03,0,.21,0,.26.07.26.26,0,2.34.02,4.69-.01,7.04-.02,1.27-.45,2.37-1.54,3.18-.53.39-1.13.63-1.77.78-.93.21-1.88.22-2.81.07-1.47-.24-2.87-.95-3.44-2.82-.12-.39-.14-.79-.14-1.19,0-2.34,0-4.69,0-7.04,0-.21.05-.29.29-.28.66.01,1.32.01,1.98,0,.18,0,.26.04.26.23,0,2.16,0,4.32-.02,6.49,0,.49.05.97.17,1.44.15.58.73,1.06,1.35,1.16.53.09,1.04.09,1.57,0,.77-.13,1.33-.69,1.46-1.43.18-.99.06-1.97.09-2.96.01-.37,0-.73,0-1.1h0Z"></path><path class="cls-1" d="m52.18,60.2c0-1.78,0-3.55,0-5.33,0-.25.08-.31.33-.31,2.06,0,4.12.01,6.18,0,.27,0,.34.07.33.32-.02.44,0,.88,0,1.31,0,.23-.13.35-.38.35-1.23,0-2.45,0-3.68,0-.2,0-.27.04-.26.24.01.65.01,1.3,0,1.94,0,.21.05.27.28.27,1.13-.01,2.25,0,3.38-.01.29,0,.36.08.35.34-.02.47-.01.94,0,1.42,0,.19-.07.24-.26.24-1.15,0-2.31,0-3.46-.01-.24,0-.29.07-.28.28.01.77.01,1.54,0,2.31,0,.23.05.31.32.31,1.23-.02,2.45,0,3.68-.01.27,0,.34.08.33.33-.02.47-.02.94,0,1.42,0,.2-.06.25-.26.25-2.1,0-4.2,0-6.29,0-.25,0-.28-.09-.28-.29,0-1.79,0-3.57,0-5.36h0Z"></path><path class="cls-1" d="m38.62,61.19c0,1.46,0,2.92,0,4.38,0,.22-.06.28-.29.28-.63-.01-1.26-.01-1.9,0-.25,0-.32-.06-.32-.3,0-2.88,0-5.76,0-8.64,0-.24-.12-.36-.37-.36-.84,0-1.69,0-2.53,0-.25,0-.31-.08-.3-.3.02-.48.02-.96,0-1.44,0-.19.04-.25.26-.25,2.8,0,5.6,0,8.4,0,.2,0,.25.06.25.24-.01.51-.01,1.02,0,1.52,0,.19-.07.24-.25.23-.89,0-1.78,0-2.67,0-.23,0-.29.06-.29.28,0,1.45,0,2.91,0,4.36h0Z"></path><path class="cls-1" d="m43.21,60.2c0-1.79,0-3.57,0-5.36,0-.22.07-.28.3-.28.64.01,1.28.01,1.92,0,.25,0,.3.06.3.29,0,2.88,0,5.76,0,8.64,0,.42-.02.36.36.35,1.38,0,2.77,0,4.15,0,.22,0,.31.05.31.28-.02.49-.02.98,0,1.47,0,.19-.06.25-.26.25-2.26,0-4.52,0-6.79,0-.22,0-.28-.06-.28-.27,0-1.79,0-3.59,0-5.38h0Z"></path><path class="cls-1" d="m56,47.03c0-1.03,0-2.06,0-3.1,0-.21.05-.3.28-.28.6.03,1.21-.04,1.81.08.97.19,1.65.7,1.96,1.6.38,1.12.4,2.26-.02,3.37-.39,1.04-1.24,1.53-2.35,1.67-.46.06-.93.04-1.4.05-.22,0-.28-.06-.28-.27.01-1.04,0-2.08,0-3.12h0Z"></path><path class="cls-1" d="m2.47,48.03s.09.01.14.01h8.6c0,.09.02.19.02.28v3.43c0,.35,0,.32-.38.34-.61.03-1.22-.07-1.81-.18-1.14-.22-2.23-.61-3.25-1.15-1.15-.61-2.14-1.41-3.02-2.33-.12-.12-.2-.27-.3-.4h0Z"></path><path class="cls-3" d="m22.71,40.78c0,.63-.01,1.26-.01,1.89,0,1.7,0,3.4,0,5.09,0,.24-.07.29-.31.29-.65-.01-1.3,0-1.95-.01,0-.07-.02-.14-.02-.21v-6.96c0-.07.01-.14.02-.21h2.01c.09,0,.18-.02.26.05v.06h0Z"></path><path class="cls-1" d="m46.43,45.2v-1.34c0-.11-.01-.22.16-.21.55.02,1.11-.06,1.66.08.63.16.98.55,1.04,1.16.09,1.13-.47,1.73-1.73,1.82-.31.02-.62,0-.93.01-.16,0-.2-.05-.2-.2,0-.45,0-.89,0-1.34h0Z"></path><path class="cls-2" d="m27.77,25.05c0-8.12,0-16.25,0-24.37,0-.22.09-.25.29-.25,3.47,0,6.94-.01,10.41-.03,4.29-.01,8.59-.02,12.89-.04.28,0,.35.07.35.34,0,9.97,0,19.94,0,29.91,0,.23-.12.34-.35.34h-17.61c-.15,0-.29,0-.44,0-.03-.07-.07-.14-.09-.22-.37-1.32-.75-2.64-1.12-3.97-.05-.16-.12-.25-.29-.31-.75-.25-1.5-.51-2.24-.78-.6-.21-1.21-.39-1.79-.64h0ZM45.5,7.95c1.03,0,2.05,0,3.08,0,.22,0,.28-.06.28-.27,0-1.35,0-2.69,0-4.04,0-.2-.04-.27-.27-.27-2.06,0-4.12,0-6.18,0-.2,0-.24.06-.24.24,0,1.36,0,2.73,0,4.09,0,.2.06.25.26.25,1.03-.01,2.05,0,3.08,0h0Zm-5.73,10.18h-9.03c-.1,0-.14.06-.15.15-.03.27.16.22.32.22h17.77c.19.02.21-.08.2-.22-.01-.2-.17-.14-.29-.14h-8.81Zm-.03-3.86c2.95,0,5.9,0,8.85,0,.21,0,.32-.04.28-.25-.04-.19-.2-.12-.31-.12h-17.83c-.13,0-.14.09-.14.18s.01.18.14.18h9.01Zm-.03-4.24h7.36c.53,0,1.06,0,1.59,0,.2,0,.23-.09.21-.24-.03-.19-.18-.1-.29-.1-5.9,0-11.79,0-17.69,0h-.14c-.15-.01-.18.07-.18.2,0,.23.19.15.31.15,2.94,0,5.88,0,8.82,0h0Zm.06,5.99h-9.01c-.14,0-.17.07-.17.18,0,.11.03.19.17.18h17.91c.24.03.23-.13.2-.27-.03-.15-.18-.09-.28-.09h-8.82Zm-.03-4.23h-9.01c-.11,0-.14.06-.14.15,0,.09,0,.18.13.19.07,0,.15,0,.22,0h17.61s.09,0,.14,0c.17.02.2-.08.19-.21-.01-.21-.18-.14-.29-.14-2.95,0-5.9,0-8.84,0h0Zm-4.41-6.35h-4.48c-.14,0-.27-.01-.27.19,0,.2.14.17.26.17h8.96c.18,0,.27-.04.25-.23-.02-.19-.17-.13-.27-.13h-4.45Zm8.7,22.64h4.7c.14,0,.17-.07.17-.18,0-.12-.03-.19-.17-.18-.05,0-.09,0-.14,0h-9.09s-.09,0-.14,0c-.15-.01-.18.06-.18.19,0,.2.14.16.27.16h4.59,0Zm0-4.24h4.64c.16,0,.24-.03.23-.2-.01-.18-.14-.15-.26-.15h-9.17c-.13,0-.28-.04-.28.18s.16.17.28.17h4.56Zm-8.71-16.28h-4.47c-.15,0-.27,0-.26.2.02.21.17.15.28.15h8.92c.14,0,.28.03.27-.18,0-.21-.15-.16-.27-.16h-4.48,0Zm-.01-3.88h4.56c.07,0,.16.02.18-.08.02-.08.03-.16-.02-.23-.06-.08-.17-.05-.26-.05h-8.87c-.14,0-.31-.04-.31.19,0,.22.17.16.29.16h4.42Zm8.72,21.93h-4.58c-.18,0-.29.03-.25.22.03.18.18.12.28.12h9.27c.11,0,.14-.05.15-.15.02-.21-.11-.19-.26-.19h-4.61,0Z"></path><path class="cls-2" d="m46.42,35.5c-.07.29-.32.39-.57.48-.17.06-.3.14-.41.28-.64.8-1.28,1.6-1.94,2.38-.58.69-1.38,1.11-2.21,1.46-.7.29-1.35.66-1.96,1.09-.2.14-.34.32-.46.51-.37.55-.9.91-1.56.96-1.92.15-3.6.95-5.3,1.69-.92.4-1.82.87-2.73,1.28-.63.28-1.3.45-1.98.63-.19.05-.25,0-.28-.19-.21-1.62-.43-3.24-.66-4.87-.02-.16.03-.22.18-.25.36-.07.71-.16,1.05-.29.09-.03.18-.06.21-.18.32-1.06,1.1-1.79,1.98-2.45,1.05-.78,2.24-1.31,3.46-1.81,1.04-.42,2.05-.9,2.93-1.58.19-.15.41-.25.65-.35-.09,0-.18-.02-.28-.02h-10.41c-.48,0-.95-.04-1.43-.09-.42-.04-.7-.24-.89-.61-.35-.68-.36-.67.41-.67h31.33c.41,0,.38,0,.27.37-.18.64-.64.86-1.3.91-1.72.14-3.44.05-5.16.07-.94.01-1.89.01-2.83.01h-4.05c-.54-.02-1.09-.02-1.63,0h-2.93c.48.3.55.55.37,1.03-.17.43-.45.78-.84,1.05-.43.29-.85.58-1.27.87-.24.16-.47.33-.62.58-.13.22-.17.4.07.58.33.48,1.02.74,1.59.6.66-.17,1.32-.34,1.98-.51.53-.13,1-.34,1.41-.7.38-.34.8-.66,1.27-.85.42-.18.71-.46,1.02-.76.65-.63,1.33-1.21,2.3-1.38.73-.13,1.13.08,1.23.72h0Z"></path><path class="cls-2" d="m67.2,52.23c-.69,0-1.39.01-2.08.01-.11,0-.19,0-.19-.15,0-3.3.01-6.6.02-9.89,0-.23.12-.35.37-.35,1.85,0,3.7,0,5.55,0,.27,0,.34.08.33.33-.02.41-.02.82,0,1.23.01.22-.08.26-.28.26-1.14,0-2.29,0-3.43,0-.2,0-.27.04-.27.24.02.73.01,1.47,0,2.2,0,.18.05.24.25.24,1.05,0,2.1,0,3.16,0,.22,0,.31.05.3.28-.02.42-.02.84,0,1.26,0,.21-.06.27-.28.27-1.04,0-2.09,0-3.13-.01-.23,0-.29.06-.29.28.01,1.15,0,2.29,0,3.44,0,.12.01.24.02.36l-.03.03h0Z"></path><path class="cls-3" d="m40.84,34.29c.54-.02,1.09-.02,1.63,0,.05.39-.18.66-.43.92-.18.2-.23.43-.29.68.7-.68,1.46-1.28,2.41-1.61h2.36c.34.54.32.79-.11,1.21-.09-.64-.5-.84-1.23-.72-.97.17-1.65.75-2.3,1.38-.31.3-.6.58-1.02.76-.48.2-.89.52-1.27.85-.41.36-.88.57-1.41.7-.66.17-1.32.34-1.98.51-.57.15-1.26-.12-1.59-.6.5.02.94-.18,1.41-.31.67-.18,1.22-.5,1.67-1.02.52-.6,1.11-1.14,1.49-1.84.18-.34.37-.66.66-.93h0Z"></path><path class="cls-2" d="m22.71,40.78v-.06c.08-.04.16-.04.24-.04.57,0,1.13,0,1.7,0,.17,0,.24.03.24.21,0,2.2,0,4.4,0,6.61,0,.17-.05.23-.23.22-.56-.01-1.12-.01-1.67,0-.22,0-.26-.07-.25-.25,0-2.13,0-4.27,0-6.4,0-.09.03-.19-.02-.28h0Zm1.15,6.38c.31,0,.54-.24.54-.54,0-.29-.26-.53-.56-.52-.29,0-.55.26-.54.55,0,.3.25.52.57.52h0Z"></path><path class="cls-3" d="m27.78,25.05c.58.26,1.19.43,1.79.64.74.27,1.49.52,2.24.78.17.06.24.15.29.31.37,1.33.74,2.65,1.12,3.97.02.07.06.15.09.22-.11.15-.15-.01-.19-.05-.79-.84-1.58-1.67-2.36-2.51-.98-1.05-1.97-2.09-2.94-3.14-.04-.04-.28-.12-.02-.21h0Z"></path><path class="cls-3" d="m45.5,7.95c-1.03,0-2.05,0-3.08,0-.2,0-.27-.04-.26-.25,0-1.36,0-2.73,0-4.09,0-.18.05-.24.24-.24,2.06,0,4.12,0,6.18,0,.23,0,.27.07.27.27,0,1.35,0,2.69,0,4.04,0,.21-.05.27-.28.27-1.03-.01-2.05,0-3.08,0h0Z"></path><path class="cls-1" d="m39.76,18.14h8.81c.11,0,.28-.06.29.14.01.14-.01.25-.2.22-.04,0-.07,0-.11,0h-17.66c-.16,0-.35.05-.32-.22.01-.09.05-.15.15-.15h9.03Z"></path><path class="cls-1" d="m39.73,14.28h-9.01c-.13,0-.14-.09-.14-.18s0-.18.14-.18h17.83c.11,0,.27-.07.31.12.05.22-.07.25-.28.25-2.95,0-5.9,0-8.85,0Z"></path><path class="cls-1" d="m39.7,10.03h-8.82c-.11,0-.3.08-.31-.15,0-.12.02-.21.18-.2h17.83c.1,0,.26-.08.29.1.02.15,0,.25-.21.24-.53-.01-1.06,0-1.59,0h-7.36,0Z"></path><path class="cls-1" d="m39.76,16.02h8.82c.1,0,.24-.06.28.09.03.14.04.3-.2.27-.04,0-.07,0-.11,0h-17.8c-.14,0-.17-.07-.17-.18s.04-.18.17-.18c.23,0,.46,0,.69,0h8.32Z"></path><path class="cls-1" d="m39.73,11.79h8.84c.11,0,.28-.07.29.14,0,.13-.01.23-.19.21-.05,0-.09,0-.14,0h-17.83c-.13,0-.12-.1-.13-.19,0-.09.03-.15.14-.15h9.01,0Z"></path><path class="cls-1" d="m35.32,5.45h4.45c.11,0,.25-.05.27.13.02.19-.06.23-.25.23-1.3,0-2.6,0-3.9,0h-5.06c-.12,0-.26.03-.26-.17,0-.21.12-.19.27-.19h4.48Z"></path><path class="cls-1" d="m44.02,28.09h-4.59c-.12,0-.27.03-.27-.16,0-.13.03-.21.18-.19.05,0,.09,0,.14,0h9.23c.14-.01.17.06.17.18,0,.12-.04.18-.17.18h-4.7,0Z"></path><path class="cls-1" d="m44.02,23.85h-4.56c-.12,0-.29.06-.28-.17,0-.22.15-.18.28-.18h9.17c.11,0,.25-.03.26.15.01.17-.07.2-.23.2-.9,0-1.81,0-2.72,0h-1.92Z"></path><path class="cls-1" d="m35.3,7.57h4.48c.12,0,.26-.04.27.16,0,.22-.14.18-.27.18h-8.92c-.11,0-.27.07-.28-.15-.02-.2.11-.2.26-.2h4.47,0Z"></path><path class="cls-1" d="m35.29,3.69h-4.42c-.12,0-.29.06-.29-.16,0-.23.17-.19.31-.19h8.87c.09,0,.19-.03.26.05.05.07.03.15.02.23-.02.1-.11.07-.18.08h-4.56Z"></path><path class="cls-1" d="m44.02,25.62h4.61c.15,0,.28,0,.26.19-.01.09-.05.15-.15.15h-9.27c-.1,0-.25.07-.28-.12-.03-.2.08-.22.25-.22,1.53,0,3.06,0,4.58,0h0Z"></path><path class="cls-1" d="m40.84,34.29c-.29.26-.48.59-.66.93-.38.7-.97,1.24-1.49,1.84-.45.52-1,.84-1.67,1.02-.46.13-.9.33-1.41.31-.23-.17-.2-.36-.07-.58.15-.25.38-.42.62-.58.43-.29.85-.58,1.27-.87.39-.27.67-.61.84-1.05.18-.48.11-.73-.37-1.03h2.94Z"></path><path class="cls-1" d="m44.17,34.29c-.96.32-1.71.92-2.41,1.61.06-.24.11-.48.29-.68.24-.26.47-.54.43-.92h1.69Z"></path><path class="cls-1" d="m23.85,47.16c-.31,0-.56-.22-.57-.52,0-.28.25-.54.54-.55.31,0,.55.23.56.52,0,.3-.23.53-.54.54h0Z"></path></g></g></svg>