<svg xmlns="http://www.w3.org/2000/svg" viewBox="0 0 109 34" fill="none" role="img" aria-label="Gkazas"><path fill-rule="evenodd" clip-rule="evenodd" d="M8.35167 33.1166C2.7166 33.1166 0 27.9739 0 17.8197C0 6.10614 2.68083 0.289062 8.46533 0.289062C13.4018 0.289062 15.6542 3.77964 15.6542 10.9764C15.6542 11.4252 15.6113 11.8706 15.6113 12.3644H10.2123C10.2123 11.8279 10.2528 11.2898 10.2528 10.7984C10.2528 7.04292 9.78547 5.34234 8.29683 5.34234C6.16838 5.34234 6.12784 9.27666 6.12784 18.0428C6.12784 24.5727 6.38138 27.8393 8.50745 27.8393C10.1233 27.8393 10.8886 26.0944 10.8886 22.6047H8.72204V17.3283H15.8243C16.1343 28.3917 13.9844 33.1166 8.35167 33.1166Z" fill="#0054BC"></path><path fill-rule="evenodd" clip-rule="evenodd" d="M36.3338 0.867188H31.9241C31.1144 0.876584 30.4388 1.48648 30.2599 2.31334L27.2305 16.9918L30.2623 31.6985C30.4498 32.504 31.112 33.1053 31.9084 33.1199H36.3338L32.1823 16.9918L36.3338 0.867188ZM20.4375 33.1197H26.148V0.845703H20.4375V33.1197Z" fill="#0054BC"></path><path fill-rule="evenodd" clip-rule="evenodd" d="M52.8191 0.845703H45.6265C44.7529 0.852537 44.0328 1.5163 43.8769 2.3885L39.7402 33.1197H43.626H43.6317C44.5475 33.1197 45.3009 32.3996 45.413 31.4684L48.1832 6.60172L51.2684 33.1197H56.7715L52.8191 0.845703Z" fill="#0054BC"></path><path fill-rule="evenodd" clip-rule="evenodd" d="M88.0162 0.845703H80.8216C79.952 0.852537 79.2294 1.5163 79.0743 2.3885L74.9375 33.1197H78.821H78.8308C79.7409 33.1197 80.4952 32.3996 80.6089 31.4684L83.3825 6.60172L86.4662 33.1197H91.9688L88.0162 0.845703Z" fill="#0054BC"></path><path fill-rule="evenodd" clip-rule="evenodd" d="M71.8525 7.20825C72.564 4.85988 72.666 3.03005 72.666 0.845703H59.8063V4.20039V4.21064C59.8063 5.24942 60.5795 6.08916 61.5385 6.10027H66.1073C66.1073 6.10027 61.2128 22.1809 59.8237 26.7563C59.1098 29.109 59.041 30.105 59.041 33.1197H70.8674H70.8809C71.8359 33.1197 72.6107 32.2902 72.6265 31.2617V27.8173H65.5586C65.5586 27.8173 71.2959 9.04406 71.8525 7.20825Z" fill="#0054BC"></path><path fill-rule="evenodd" clip-rule="evenodd" d="M96.1876 7.20825C95.4786 4.85988 95.375 3.03005 95.375 0.845703H108.236V4.20039C108.236 4.20466 108.235 4.20893 108.235 4.21064C108.235 5.24942 107.46 6.08916 106.5 6.10027H101.935C101.935 6.10027 106.829 22.1809 108.22 26.7563C108.934 29.109 109 30.105 109 33.1197H97.175H97.1631C96.2066 33.1197 95.4343 32.2902 95.4185 31.2617V27.8173H102.483C102.483 27.8173 96.7465 9.04406 96.1876 7.20825Z" fill="#0054BC"></path></svg>
