<svg width="150" height="37" viewBox="0 0 150 37" fill="none" xmlns="http://www.w3.org/2000/svg">
<path d="M62.7281 11.0843C65.0137 11.0843 66.3273 12.3243 66.3273 14.4913C66.3273 16.5892 64.9893 17.7886 62.6549 17.7886C60.9956 17.7886 59.019 17.2113 59.019 14.4547C59.019 12.3731 60.4384 11.0843 62.7281 11.0843ZM61.1176 27.3918H64.5988C66.5388 27.3918 67.523 28.1114 67.523 29.5303C67.523 31.3802 65.644 32.5268 62.6142 32.5268C60.658 32.5268 58.5676 31.8478 58.5676 29.941C58.5676 28.9368 59.1695 28.0057 60.2269 27.3674C60.5116 27.3918 60.8288 27.3918 61.1176 27.3918ZM62.9151 7.08768C57.7217 7.08768 54.0899 10.2711 54.0899 14.8288C54.0899 17.0812 54.8749 18.8538 56.3674 20.0085C55.3385 20.7728 54.7284 21.9519 54.7284 23.2448C54.7284 24.3425 55.2165 25.3142 56.0949 26.0054C54.5373 27.1031 53.5653 28.8636 53.5653 30.6891C53.5653 34.4905 56.6318 36.6697 61.9838 36.6697C68.1167 36.6697 72.5659 33.4456 72.5659 29.0059C72.5659 25.2532 70.0607 23.1025 65.6847 23.1025H62.5044C59.9544 23.1025 59.9544 22.5699 59.9544 22.3137C59.9544 22.0007 60.1984 21.6713 60.5929 21.4437C61.1704 21.5656 61.8699 21.6348 62.545 21.6348C67.8971 21.6348 71.2198 18.801 71.2198 14.2352C71.2198 13.2513 70.9839 12.369 70.5447 11.6494H72.7937V7.46579H66.0467C64.9364 7.20965 63.9115 7.08768 62.9151 7.08768Z" fill="#1d2327"/>
<path d="M44.8418 18.679C44.7767 20.9233 43.2435 23.2854 40.7993 23.2854C39.5304 23.2854 38.774 22.6268 38.774 21.525C38.774 19.3051 41.9584 18.74 44.8418 18.679ZM49.8848 23.0252V13.8937C49.8848 9.18558 47.4853 7.08768 42.1048 7.08768C39.8842 7.08768 37.4929 7.53897 35.37 8.36024L34.9999 8.50661L35.5042 13.1252L36.2037 12.6902C37.5742 11.8405 39.6931 11.2713 41.4703 11.2713C44.2765 11.2713 44.8418 12.4178 44.8418 14.2677V14.9507C38.0623 15.0849 33.8774 17.8333 33.8774 22.1958C33.8774 25.3996 36.1223 27.465 39.5996 27.465C41.816 27.465 43.8169 26.5787 45.1265 25.0947C45.1102 25.5419 45.1021 26.0298 45.1021 26.5665V27.0584L45.5942 27.0869C47.5341 27.1885 50.1776 27.0909 52.6747 26.8267L53.1383 26.7779V23.3546L52.6544 23.322C51.7881 23.2651 50.747 23.1513 49.8848 23.0252Z" fill="#1d2327"/>
<path d="M25.0644 7.08768C22.1728 7.08768 20.1272 8.60418 18.964 10.3077C18.3784 8.92537 16.9834 7.08768 13.6892 7.08768C11.4321 7.08768 9.43931 7.99839 8.06062 9.60028C8.09316 9.01889 8.10943 8.45375 8.10943 7.9862V7.49425L7.61733 7.46985C5.60827 7.37228 2.93631 7.46985 0.463628 7.73412L0 7.77885V11.194L0.483963 11.2266C1.36242 11.2875 2.40355 11.4014 3.2576 11.5274V27.0869H8.26397V17.6707C8.26397 14.2433 10.1795 11.4583 12.5342 11.4583C14.1122 11.4583 14.6694 12.2999 14.6694 14.6783V27.0909H19.6757V17.6707C19.6757 13.8327 21.8922 11.4583 23.9501 11.4583C25.3003 11.4583 26.0852 11.9909 26.0852 14.7149V27.0909H31.1282V13.7432C31.1241 9.38886 29.0296 7.08768 25.0644 7.08768Z" fill="#1d2327"/>
<path d="M94.6981 15.2069C92.8721 14.5726 91.7577 14.1254 91.7577 12.9951C91.7577 11.503 93.2665 11.194 94.5354 11.194C95.6782 11.194 96.9471 11.377 98.0126 11.6982L98.6593 11.8933L98.8138 7.51051L98.3664 7.43326C97.4229 7.2747 96.0402 7.08768 94.7998 7.08768C89.8219 7.08768 86.609 9.55149 86.609 13.3692C86.609 17.3942 89.525 18.3456 91.8635 19.11C93.718 19.7157 94.7672 20.1142 94.7672 21.2973C94.7672 22.4804 93.5309 23.2448 91.6154 23.2448C89.952 23.2448 88.4635 22.8829 87.7233 22.6674L87.0808 22.4804L86.9344 26.9934L87.3655 27.0787C88.6343 27.3267 90.0618 27.465 91.3958 27.465C96.5404 27.465 99.9973 24.8345 99.9973 20.9233C99.9891 17.0568 97.0569 16.0322 94.6981 15.2069Z" fill="#1d2327"/>
<path d="M149.516 7.09175C147.247 6.86814 145.352 7.72194 144.046 9.46612C144.087 8.91319 144.111 8.40091 144.111 7.98214V7.49019L143.615 7.4658C140.707 7.3235 137.645 7.60403 136.461 7.73007L135.998 7.77885V11.194L136.482 11.2266C137.364 11.2876 138.401 11.4014 139.251 11.5274V27.0869H144.258V19.0165C144.258 15.8046 144.872 13.6619 146.088 12.6455C146.86 12.0031 147.869 11.808 149.187 12.0438L149.768 12.1495L150 7.13647L149.516 7.09175Z" fill="#1d2327"/>
<path d="M125.521 11.4949C128.307 11.4949 129.718 13.4098 129.718 17.1828C129.718 20.7606 128.096 22.9846 125.485 22.9846C122.678 22.9846 121.255 21.0086 121.255 17.1056C121.251 12.9667 123.553 11.4949 125.521 11.4949ZM125.855 7.08768C120.088 7.08768 116.058 11.377 116.058 17.5203C116.058 23.9319 119.27 27.465 125.106 27.465C130.763 27.465 134.867 23.0293 134.867 16.9226C134.871 10.5801 131.67 7.08768 125.855 7.08768Z" fill="#1d2327"/>
<path d="M75.4087 7.73006L74.9451 7.77885V11.194L75.4291 11.2266C76.3075 11.2876 77.3486 11.4014 78.1986 11.5274V27.0869H83.2091V7.48612L82.7129 7.46173C80.5534 7.36415 77.8936 7.46173 75.4087 7.73006Z" fill="#1d2327"/>
<path d="M109.55 0.306091L104.544 1.67623V7.46173H100.99V11.6087H104.544V21.2282C104.544 25.7493 106.085 27.4325 110.23 27.4325C111.734 27.4325 113.259 27.1723 114.036 27.0137L114.451 26.9283V22.5373L113.8 22.7081C113.121 22.887 112.263 22.9927 111.503 22.9927C110.116 22.9927 109.591 22.7325 109.591 19.9922V11.6087H114.455V7.46173H109.555V0.306091H109.55Z" fill="#1d2327"/>
</svg>
