<svg xmlns="http://www.w3.org/2000/svg" viewBox="0 0 800 500" role="img" aria-label="Gkazas · Resolve IT case">
  <defs>
    <linearGradient id="cs-bg" x1="0" y1="0" x2="1" y2="1">
      <stop offset="0" stop-color="#1D2723"/>
      <stop offset="1" stop-color="#243430"/>
    </linearGradient>
    <linearGradient id="cs-acc" x1="0" y1="0" x2="1" y2="1">
      <stop offset="0" stop-color="#6DB757"/>
      <stop offset="1" stop-color="#3E8E41"/>
    </linearGradient>
  </defs>
  <rect width="800" height="500" fill="url(#cs-bg)"/>
  <circle cx="680" cy="60" r="220" fill="#6DB757" opacity="0.07"/>
  <circle cx="120" cy="460" r="190" fill="#6C4494" opacity="0.09"/>
  <circle cx="400" cy="250" r="150" fill="none" stroke="#ffffff" opacity="0.05" stroke-width="1.5"/>
  <circle cx="400" cy="250" r="205" fill="none" stroke="#ffffff" opacity="0.035" stroke-width="1.5"/>
  <rect x="330" y="180" width="140" height="140" rx="32" fill="#ffffff" opacity="0.97"/>
  <g transform="translate(352,202)" stroke="url(#cs-acc)" stroke-width="6" fill="none" stroke-linecap="round" stroke-linejoin="round">
    <path d="M24 40 h48 l-5 28 a7 7 0 0 1 -7 6 h-24 a7 7 0 0 1 -7 -6 z"/>
    <path d="M36 40 c0 -16 24 -16 24 0"/>
    <path d="M40 52 v12 M56 52 v12"/>
  </g>
  <rect x="368" y="352" width="64" height="6" rx="3" fill="url(#cs-acc)"/>
</svg>
