<svg xmlns="http://www.w3.org/2000/svg" viewBox="0 0 800 500" role="img" aria-label="MULTA Casting x Resolve IT">
  <defs>
    <linearGradient id="mc-bg" x1="0" y1="0" x2="1" y2="1">
      <stop offset="0" stop-color="#1E2B23"/>
      <stop offset="1" stop-color="#3A2A3E"/>
    </linearGradient>
    <linearGradient id="mc-acc" x1="0" y1="0" x2="1" y2="1">
      <stop offset="0" stop-color="#6DB757"/>
      <stop offset="1" stop-color="#3E8E41"/>
    </linearGradient>
  </defs>
  <rect width="800" height="500" fill="url(#mc-bg)"/>
  <circle cx="710" cy="70" r="170" fill="#6DB757" opacity="0.08"/>
  <circle cx="90" cy="450" r="140" fill="#6DB757" opacity="0.08"/>
  <!-- Candidate cards -->
  <g>
    <rect x="105" y="185" width="150" height="150" rx="16" fill="#ffffff" opacity="0.7" transform="rotate(-6 180 260)"/>
    <rect x="135" y="170" width="150" height="160" rx="16" fill="#ffffff" opacity="0.96"/>
    <circle cx="210" cy="215" r="26" fill="url(#mc-acc)" opacity="0.85"/>
    <path d="M170 262c8-16 26-24 40-24s32 8 40 24" fill="none" stroke="url(#mc-acc)" stroke-width="8" stroke-linecap="round" opacity="0.85"/>
    <path d="M162 292h96" stroke="#1E2B23" stroke-width="7" stroke-linecap="round" opacity="0.3"/>
    <circle cx="272" cy="192" r="17" fill="url(#mc-acc)"/>
    <path d="M265 192l5 5 9-9.5" stroke="#ffffff" stroke-width="3.5" fill="none" stroke-linecap="round" stroke-linejoin="round"/>
    <text x="210" y="372" text-anchor="middle" font-family="Segoe UI, Arial, sans-serif" font-size="20" font-weight="600" fill="#ffffff" opacity="0.85">Kandidaten &amp; rollen</text>
  </g>
  <!-- Shortlist -->
  <g>
    <rect x="450" y="150" width="240" height="180" rx="18" fill="#ffffff" opacity="0.96"/>
    <g font-family="Segoe UI, Arial, sans-serif">
      <circle cx="486" cy="190" r="12" fill="url(#mc-acc)" opacity="0.85"/>
      <path d="M510 190h150" stroke="#1E2B23" stroke-width="8" stroke-linecap="round" opacity="0.35"/>
      <circle cx="486" cy="232" r="12" fill="url(#mc-acc)" opacity="0.6"/>
      <path d="M510 232h120" stroke="#1E2B23" stroke-width="8" stroke-linecap="round" opacity="0.3"/>
      <circle cx="486" cy="274" r="12" fill="url(#mc-acc)" opacity="0.4"/>
      <path d="M510 274h135" stroke="#1E2B23" stroke-width="8" stroke-linecap="round" opacity="0.25"/>
    </g>
    <text x="570" y="365" text-anchor="middle" font-family="Segoe UI, Arial, sans-serif" font-size="20" font-weight="600" fill="#ffffff" opacity="0.85">Shortlists in één klik</text>
  </g>
  <text x="400" y="440" text-anchor="middle" font-family="Segoe UI, Arial, sans-serif" font-size="26" font-weight="700" fill="#ffffff">MULTA Casting · Maatwerk voor casting</text>
</svg>
