<svg xmlns="http://www.w3.org/2000/svg" viewBox="0 0 800 500" role="img" aria-label="PayPlaza x Resolve IT">
  <defs>
    <linearGradient id="pz-bg" x1="0" y1="0" x2="1" y2="1">
      <stop offset="0" stop-color="#1E2B23"/>
      <stop offset="1" stop-color="#2A3E4A"/>
    </linearGradient>
    <linearGradient id="pz-acc" x1="0" y1="0" x2="1" y2="1">
      <stop offset="0" stop-color="#6DB757"/>
      <stop offset="1" stop-color="#3E8E41"/>
    </linearGradient>
  </defs>
  <rect width="800" height="500" fill="url(#pz-bg)"/>
  <circle cx="710" cy="70" r="170" fill="#6DB757" opacity="0.08"/>
  <circle cx="90" cy="450" r="140" fill="#6DB757" opacity="0.08"/>
  <!-- Payment terminal -->
  <g>
    <rect x="150" y="150" width="130" height="185" rx="18" fill="#ffffff" opacity="0.96"/>
    <rect x="168" y="170" width="94" height="52" rx="8" fill="#1E2B23" opacity="0.8"/>
    <path d="M195 196l10 10 20-22" stroke="#6DB757" stroke-width="6" fill="none" stroke-linecap="round" stroke-linejoin="round"/>
    <g fill="url(#pz-acc)" opacity="0.85">
      <rect x="170" y="238" width="26" height="20" rx="5"/><rect x="202" y="238" width="26" height="20" rx="5"/><rect x="234" y="238" width="26" height="20" rx="5"/>
      <rect x="170" y="264" width="26" height="20" rx="5"/><rect x="202" y="264" width="26" height="20" rx="5"/><rect x="234" y="264" width="26" height="20" rx="5"/>
      <rect x="170" y="290" width="26" height="20" rx="5"/><rect x="202" y="290" width="26" height="20" rx="5"/><rect x="234" y="290" width="26" height="20" rx="5"/>
    </g>
    <text x="215" y="372" text-anchor="middle" font-family="Segoe UI, Arial, sans-serif" font-size="20" font-weight="600" fill="#ffffff" opacity="0.85">Betaaloplossingen</text>
  </g>
  <!-- Chain of departments -->
  <g>
    <rect x="420" y="150" width="270" height="180" rx="18" fill="#ffffff" opacity="0.96"/>
    <g font-family="Segoe UI, Arial, sans-serif" font-size="13" font-weight="600">
      <circle cx="465" cy="215" r="22" fill="url(#pz-acc)"/>
      <circle cx="525" cy="215" r="22" fill="url(#pz-acc)" opacity="0.75"/>
      <circle cx="585" cy="215" r="22" fill="url(#pz-acc)" opacity="0.55"/>
      <circle cx="645" cy="215" r="22" fill="url(#pz-acc)" opacity="0.4"/>
      <path d="M487 215h16M547 215h16M607 215h16" stroke="#1E2B23" stroke-width="4" opacity="0.4"/>
      <text x="465" y="221" text-anchor="middle" fill="#ffffff">S</text>
      <text x="525" y="221" text-anchor="middle" fill="#ffffff">S</text>
      <text x="585" y="221" text-anchor="middle" fill="#ffffff">L</text>
      <text x="645" y="221" text-anchor="middle" fill="#ffffff">B</text>
    </g>
    <path d="M450 275h210M450 297h150" stroke="#1E2B23" stroke-width="7" stroke-linecap="round" opacity="0.25"/>
    <text x="555" y="365" text-anchor="middle" font-family="Segoe UI, Arial, sans-serif" font-size="20" font-weight="600" fill="#ffffff" opacity="0.85">4 afdelingen, één keten</text>
  </g>
  <text x="400" y="440" text-anchor="middle" font-family="Segoe UI, Arial, sans-serif" font-size="26" font-weight="700" fill="#ffffff">PayPlaza · Eén geautomatiseerde keten</text>
</svg>
