<svg xmlns="http://www.w3.org/2000/svg" viewBox="0 0 800 500" role="img" aria-label="OPPLE Lighting x Resolve IT">
  <defs>
    <linearGradient id="op-bg" x1="0" y1="0" x2="1" y2="1">
      <stop offset="0" stop-color="#1E2B23"/>
      <stop offset="1" stop-color="#3D3A2A"/>
    </linearGradient>
    <linearGradient id="op-acc" x1="0" y1="0" x2="1" y2="1">
      <stop offset="0" stop-color="#6DB757"/>
      <stop offset="1" stop-color="#3E8E41"/>
    </linearGradient>
  </defs>
  <rect width="800" height="500" fill="url(#op-bg)"/>
  <circle cx="700" cy="80" r="170" fill="#6DB757" opacity="0.08"/>
  <circle cx="90" cy="450" r="140" fill="#6DB757" opacity="0.08"/>
  <!-- Light bulb -->
  <g>
    <circle cx="230" cy="220" r="70" fill="#ffffff" opacity="0.96"/>
    <path d="M230 175c-26 0-44 19-44 42 0 16 9 26 17 35 6 7 9 12 9 20h36c0-8 3-13 9-20 8-9 17-19 17-35 0-23-18-42-44-42z" fill="url(#op-acc)"/>
    <rect x="214" y="276" width="32" height="8" rx="4" fill="#1E2B23" opacity="0.5"/>
    <rect x="218" y="288" width="24" height="7" rx="3.5" fill="#1E2B23" opacity="0.35"/>
    <g stroke="#ffffff" stroke-width="5" stroke-linecap="round" opacity="0.7">
      <path d="M230 130v-22M300 160l16-16M160 160l-16-16"/>
    </g>
    <text x="230" y="365" text-anchor="middle" font-family="Segoe UI, Arial, sans-serif" font-size="20" font-weight="600" fill="#ffffff" opacity="0.85">Verlichting wereldwijd</text>
  </g>
  <!-- Process chart card -->
  <g>
    <rect x="440" y="140" width="250" height="190" rx="18" fill="#ffffff" opacity="0.96"/>
    <path d="M470 292V220M525 292v-52M580 292v-92M635 292v-122" stroke="url(#op-acc)" stroke-width="26" stroke-linecap="round"/>
    <path d="M462 200l60-30 58-32 62-28" stroke="#1E2B23" stroke-width="5" stroke-linecap="round" fill="none" opacity="0.45"/>
    <text x="565" y="365" text-anchor="middle" font-family="Segoe UI, Arial, sans-serif" font-size="20" font-weight="600" fill="#ffffff" opacity="0.85">Grip op prijzen &amp; processen</text>
  </g>
  <text x="400" y="440" text-anchor="middle" font-family="Segoe UI, Arial, sans-serif" font-size="26" font-weight="700" fill="#ffffff">OPPLE Lighting · Sales Cloud optimalisatie</text>
</svg>
