<svg xmlns="http://www.w3.org/2000/svg" viewBox="0 0 800 500" role="img" aria-label="Solvid Ondernemen x Resolve IT">
  <defs>
    <linearGradient id="so-bg" x1="0" y1="0" x2="1" y2="1">
      <stop offset="0" stop-color="#1E2B23"/>
      <stop offset="1" stop-color="#44432A"/>
    </linearGradient>
    <linearGradient id="so-acc" x1="0" y1="0" x2="1" y2="1">
      <stop offset="0" stop-color="#6DB757"/>
      <stop offset="1" stop-color="#3E8E41"/>
    </linearGradient>
  </defs>
  <rect width="800" height="500" fill="url(#so-bg)"/>
  <circle cx="710" cy="70" r="170" fill="#6DB757" opacity="0.08"/>
  <circle cx="90" cy="450" r="140" fill="#6DB757" opacity="0.08"/>
  <!-- Team -->
  <g>
    <circle cx="160" cy="215" r="28" fill="#ffffff" opacity="0.96"/>
    <path d="M118 300c8-30 24-44 42-44s34 14 42 44" fill="#ffffff" opacity="0.96"/>
    <circle cx="245" cy="205" r="34" fill="url(#so-acc)"/>
    <path d="M195 305c9-36 28-52 50-52s41 16 50 52" fill="url(#so-acc)"/>
    <circle cx="330" cy="215" r="28" fill="#ffffff" opacity="0.96"/>
    <path d="M288 300c8-30 24-44 42-44s34 14 42 44" fill="#ffffff" opacity="0.96"/>
    <text x="245" y="365" text-anchor="middle" font-family="Segoe UI, Arial, sans-serif" font-size="20" font-weight="600" fill="#ffffff" opacity="0.85">Team aan het stuur</text>
  </g>
  <!-- Checklist / adoption -->
  <g>
    <rect x="470" y="150" width="220" height="180" rx="18" fill="#ffffff" opacity="0.96"/>
    <g stroke-linecap="round" stroke-linejoin="round">
      <circle cx="502" cy="192" r="13" fill="url(#so-acc)"/>
      <path d="M496 192l4.5 4.5 8-8.5" stroke="#ffffff" stroke-width="3.5" fill="none"/>
      <path d="M528 192h130" stroke="#1E2B23" stroke-width="8" opacity="0.35"/>
      <circle cx="502" cy="240" r="13" fill="url(#so-acc)"/>
      <path d="M496 240l4.5 4.5 8-8.5" stroke="#ffffff" stroke-width="3.5" fill="none"/>
      <path d="M528 240h105" stroke="#1E2B23" stroke-width="8" opacity="0.3"/>
      <circle cx="502" cy="288" r="13" fill="url(#so-acc)"/>
      <path d="M496 288l4.5 4.5 8-8.5" stroke="#ffffff" stroke-width="3.5" fill="none"/>
      <path d="M528 288h118" stroke="#1E2B23" stroke-width="8" opacity="0.25"/>
    </g>
    <text x="580" y="365" text-anchor="middle" font-family="Segoe UI, Arial, sans-serif" font-size="20" font-weight="600" fill="#ffffff" opacity="0.85">Best practices geborgd</text>
  </g>
  <text x="400" y="440" text-anchor="middle" font-family="Segoe UI, Arial, sans-serif" font-size="26" font-weight="700" fill="#ffffff">Solvid Ondernemen · Training &amp; adoptie</text>
</svg>
